<?xml version="1.0" encoding="UTF-8"?><svg id="a" xmlns="http://www.w3.org/2000/svg" viewBox="0 0 760.4 172.21"><path d="M83.81,74.97c4.31,5.44,6.46,11.67,6.46,18.7,0,6.35-1.56,11.93-4.67,16.75-3.12,4.82-7.62,8.58-13.52,11.3-5.89,2.72-12.86,4.08-20.91,4.08H0V7.14h48.96c8.05,0,14.99,1.3,20.83,3.91,5.84,2.61,10.26,6.23,13.26,10.88,3,4.65,4.5,9.92,4.5,15.81,0,6.91-1.84,12.69-5.52,17.34-3.68,4.65-8.58,7.93-14.71,9.86,6.69,1.25,12.18,4.59,16.49,10.03ZM23.8,56.1h21.76c5.67,0,10.03-1.27,13.09-3.82,3.06-2.55,4.59-6.21,4.59-10.97s-1.53-8.44-4.59-11.05c-3.06-2.61-7.42-3.91-13.09-3.91h-21.76v29.75ZM61.29,102.34c3.23-2.72,4.84-6.57,4.84-11.56s-1.7-9.1-5.1-11.99c-3.4-2.89-7.99-4.33-13.77-4.33h-23.46v31.96h23.97c5.78,0,10.29-1.36,13.52-4.08Z" fill="#231f20" stroke-width="0"/><path d="M198.22,31.62v94.18h-23.97v-11.9c-3.06,4.08-7.05,7.28-11.98,9.61s-10.29,3.49-16.06,3.49c-7.37,0-13.88-1.56-19.55-4.68-5.67-3.12-10.11-7.71-13.34-13.77-3.23-6.06-4.85-13.29-4.85-21.67V31.62h23.8v51.85c0,7.48,1.87,13.23,5.61,17.25,3.74,4.02,8.84,6.04,15.3,6.04s11.73-2.01,15.47-6.04c3.74-4.02,5.61-9.77,5.61-17.25V31.62h23.97Z" fill="#231f20" stroke-width="0"/><path d="M221.25,53.04c3.8-7.37,8.98-13.03,15.55-17,6.57-3.97,13.88-5.95,21.93-5.95,6.12,0,11.96,1.33,17.51,4,5.55,2.66,9.97,6.21,13.26,10.62V0h24.14v125.8h-24.14v-13.94c-2.95,4.65-7.08,8.39-12.41,11.22-5.33,2.83-11.5,4.25-18.53,4.25-7.94,0-15.19-2.04-21.76-6.12-6.57-4.08-11.76-9.83-15.55-17.25-3.8-7.42-5.7-15.95-5.7-25.58s1.9-17.96,5.7-25.33ZM286.28,63.83c-2.27-4.14-5.33-7.31-9.18-9.52-3.85-2.21-7.99-3.31-12.41-3.31s-8.5,1.08-12.24,3.23c-3.74,2.15-6.77,5.3-9.09,9.44-2.32,4.14-3.49,9.04-3.49,14.71s1.16,10.62,3.49,14.88c2.32,4.25,5.38,7.51,9.18,9.78,3.79,2.27,7.85,3.4,12.15,3.4s8.56-1.1,12.41-3.31c3.85-2.21,6.91-5.38,9.18-9.52,2.27-4.14,3.4-9.09,3.4-14.88s-1.13-10.74-3.4-14.88Z" fill="#231f20" stroke-width="0"/><path d="M392.36,34.25c5.33,2.78,9.52,6.38,12.58,10.79v-13.43h23.97v94.86c0,8.73-1.76,16.52-5.27,23.38-3.51,6.86-8.78,12.3-15.81,16.32-7.03,4.02-15.53,6.04-25.5,6.04-13.37,0-24.34-3.12-32.9-9.35-8.56-6.23-13.4-14.73-14.53-25.5h23.63c1.25,4.31,3.94,7.74,8.07,10.29,4.14,2.55,9.15,3.83,15.05,3.83,6.91,0,12.52-2.07,16.83-6.21,4.31-4.14,6.46-10.4,6.46-18.79v-14.62c-3.06,4.42-7.28,8.1-12.67,11.05-5.38,2.95-11.53,4.42-18.45,4.42-7.93,0-15.19-2.04-21.76-6.12-6.57-4.08-11.76-9.83-15.56-17.25-3.8-7.42-5.69-15.95-5.69-25.58s1.9-17.96,5.69-25.33c3.8-7.37,8.95-13.03,15.47-17,6.52-3.97,13.8-5.95,21.84-5.95,7.03,0,13.2,1.39,18.53,4.17ZM401.54,63.83c-2.27-4.14-5.33-7.31-9.18-9.52-3.85-2.21-7.99-3.31-12.41-3.31s-8.5,1.08-12.24,3.23c-3.74,2.15-6.77,5.3-9.09,9.44-2.32,4.14-3.49,9.04-3.49,14.71s1.16,10.62,3.49,14.88c2.32,4.25,5.38,7.51,9.18,9.78,3.8,2.27,7.85,3.4,12.16,3.4s8.56-1.1,12.41-3.31c3.85-2.21,6.91-5.38,9.18-9.52,2.27-4.14,3.4-9.09,3.4-14.88s-1.13-10.74-3.4-14.88Z" fill="#231f20" stroke-width="0"/><path d="M539.06,85.85h-68.85c.57,6.8,2.95,12.13,7.14,15.98,4.19,3.85,9.35,5.78,15.47,5.78,8.84,0,15.13-3.8,18.87-11.39h25.67c-2.72,9.07-7.93,16.52-15.64,22.36-7.71,5.84-17.17,8.75-28.39,8.75-9.07,0-17.2-2.01-24.4-6.04-7.2-4.02-12.81-9.72-16.83-17.08-4.02-7.37-6.03-15.87-6.03-25.5s1.98-18.3,5.95-25.67c3.97-7.37,9.52-13.03,16.66-17,7.14-3.97,15.36-5.95,24.65-5.95s16.97,1.93,24.05,5.78c7.08,3.85,12.58,9.32,16.49,16.41,3.91,7.08,5.87,15.22,5.87,24.4,0,3.4-.23,6.46-.68,9.18ZM515.1,69.87c-.11-6.12-2.32-11.02-6.63-14.71-4.31-3.68-9.58-5.53-15.81-5.53-5.89,0-10.85,1.79-14.88,5.35-4.02,3.57-6.49,8.53-7.4,14.88h44.71Z" fill="#231f20" stroke-width="0"/><path d="M584.79,51.17v45.56c0,3.17.76,5.47,2.29,6.88,1.53,1.42,4.11,2.12,7.73,2.12h11.05v20.06h-14.96c-20.06,0-30.09-9.75-30.09-29.24v-45.39h-11.22v-19.55h11.22V8.33h23.97v23.29h21.08v19.55h-21.08Z" fill="#231f20" stroke-width="0"/><path d="M646.84,0v125.8h-23.8V0h23.8Z" fill="#231f20" stroke-width="0"/><path d="M760.4,31.62l-58.31,138.72h-25.33l20.4-46.92-37.74-91.8h26.69l24.31,65.79,24.65-65.79h25.33Z" fill="#231f20" stroke-width="0"/></svg>