<svg width="30" height="30" viewBox="0 0 30 30" fill="none" xmlns="http://www.w3.org/2000/svg">
<path d="M15.6042 3.19695C13.8123 4.48495 12.3452 4.31131 11.3682 3.87735L13.9973 9.18294L17.6677 9.27805L20.2126 3.68098C19.7085 3.12672 17.9364 1.52234 15.6041 3.19664L15.6042 3.19695Z" fill="white"/>
<path d="M18.9523 10.0814H18.9634C19.0837 10.0814 19.1958 10.0253 19.2686 9.93023C19.319 9.86578 19.3805 9.7902 19.4507 9.70623C19.501 9.71736 19.5542 9.71736 19.6075 9.70623C22.3428 9.15472 22.9533 10.4146 22.984 10.4818C23.0455 10.6273 23.1884 10.7169 23.3367 10.7169C23.3843 10.7169 23.4347 10.7085 23.4822 10.689C23.6782 10.6107 23.7734 10.3837 23.6921 10.1879C23.6642 10.115 23.0006 8.57804 20.3016 8.82997C20.9904 8.19992 21.8778 7.58691 22.6758 7.57012C23.1517 7.55898 23.555 7.7578 23.9134 8.18042C24.0505 8.34271 24.2942 8.36243 24.4565 8.22514C24.6188 8.08804 24.6385 7.84431 24.5012 7.68203C23.9917 7.08013 23.373 6.78325 22.659 6.80005C20.9511 6.84204 19.2543 8.74305 18.7868 9.31136L18.5068 9.30296L17.6724 9.2805L17.4484 9.77324C17.4092 9.85995 17.4037 9.95799 17.4289 10.0449L18.4284 10.0701L18.9523 10.0814Z" fill="white"/>
<path d="M25.2184 22.6189C24.7062 19.5588 22.1835 15.4905 17.505 10.1824C17.4687 10.1404 17.4406 10.0927 17.4267 10.0396L14.2992 9.95837C14.2824 10.0591 14.2263 10.1515 14.1369 10.2132C14.1117 10.2328 11.5386 12.0024 9.31012 14.6984C6.3674 18.2599 5.37917 21.6589 6.3758 24.8032C7.44816 28.191 10.2087 29.5375 12.3393 30.0698C16.497 31.1113 21.3826 29.8934 23.169 28.1492C24.496 26.8501 25.6636 25.285 25.2182 22.6196L25.2184 22.6189ZM17.8635 24.5508C17.4268 24.9764 16.7995 25.2396 15.9792 25.3404V26.561H14.8901V25.374C14.3524 25.3461 13.8401 25.2508 13.3558 25.0912C12.8687 24.9317 12.4765 24.7356 12.1799 24.5032L12.779 23.1732C13.0562 23.3776 13.3782 23.5483 13.7477 23.6854C14.1172 23.8225 14.498 23.9094 14.89 23.9458V22.126C14.3748 22.0028 13.9409 21.8657 13.5825 21.7116C13.2269 21.5577 12.9302 21.3364 12.6894 21.0425C12.4486 20.7485 12.3311 20.3593 12.3311 19.8723C12.3311 19.2704 12.5494 18.7525 12.989 18.3212C13.4286 17.89 14.0614 17.6269 14.89 17.5317V16.3222H15.9792V17.5092C16.8723 17.582 17.6087 17.8031 18.1909 18.1728L17.6448 19.5139C17.0988 19.2003 16.5445 19.0128 15.979 18.9483V20.799C16.4885 20.9166 16.917 21.0482 17.2697 21.1966C17.6224 21.3451 17.9165 21.5661 18.1573 21.8602C18.3954 22.1541 18.5157 22.5406 18.5157 23.0193C18.5157 23.6156 18.3001 24.1253 17.8634 24.5509L17.8635 24.5508Z" fill="white"/>
<path d="M16.5614 22.7059C16.427 22.5884 16.2338 22.4876 15.979 22.4007V23.9041C16.2393 23.8453 16.4354 23.7529 16.5671 23.6213C16.6987 23.4897 16.7631 23.3328 16.7631 23.1538C16.7629 22.9692 16.6958 22.8208 16.5614 22.7059L16.5614 22.7059Z" fill="white"/>
<path d="M14.0869 19.7857C14.0869 19.9677 14.1568 20.1161 14.2941 20.2337C14.4312 20.3513 14.6301 20.4493 14.8933 20.5276V18.9822C14.6162 19.0467 14.4146 19.1502 14.283 19.293C14.1512 19.433 14.0869 19.598 14.0869 19.7857L14.0869 19.7857Z" fill="white"/>
</svg>
