<svg fill="none" height="16" viewBox="0 0 16 16" width="16" xmlns="http://www.w3.org/2000/svg"><g fill="#212121"><path d="m13.9728 7.72244c.0179.1724.0272.35376.0272.54468 0 1.29705-.452 2.16858-.89 2.71458-.2211.2756-.4412.4711-.603.5959-.0807.0623-.1463.1065-.1894.134-.0215.0136-.0374.0231-.0466.0284l-.0089.0051c-.1614.0874-.2621.2562-.2621.4398v1.3151c0 .2761-.2239.5-.5.5h-.5c0-.5523-.4477-1-1-1h-2c-.55228 0-1 .4477-1 1h-.5c-.27614 0-.5-.2239-.5-.5v-.6027c0-.2486-.1827-.4595-.42872-.495-.00347-.0006-.0104-.0018-.02051-.0037-.02024-.0039-.05312-.0108-.09652-.0218-.08699-.0219-.21497-.0596-.36739-.1211-.30579-.1234-.70133-.339-1.06424-.7068-.4431-.4492-.71392-1.0421-.85883-1.453-.14414-.4087-.47217-.77866-.94056-.91106-.13206-.03733-.22323-.15785-.22323-.29507v-.79396c0-.12948.08582-.24327.21031-.27886.48424-.13846.80847-.53144.9452-.94486.11227-.33947.31073-.77659.63287-1.10314.31332-.31761.66019-.56012.93262-.72418.13522-.08143.24955-.14201.32858-.18157.03945-.01975.06991-.03416.08955-.04323l.02106-.00956.00422-.00186c.18339-.07896.30226-.2595.30226-.45924v-1.67398c.20915.17702.44661.36101.69946.5265.31764.20788.68749.4053 1.0751.50956.11365-.32716.2694-.6392.46367-.92743l-.00582-.00059c-.27892-.02827-.62087-.17974-.98533-.41827-.35542-.23261-.68771-.51824-.94047-.75703-.24767-.234-.57883-.25076-.82581-.15052-.24906.10107-.4808.35059-.4808.70407v1.87756c-.07656.04108-.16487.09071-.26155.14893-.31901.1921-.73925.48384-1.12864.87856-.476.48252-.73573 1.08424-.8704 1.49143-.05517.16682-.16731.26782-.27067.29737-.5537.15831-.93541.66445-.93541 1.24034v.79396c0 .58475.38851 1.09831.95122 1.25733.1061.03.21509.1271.2695.2814.16622.4713.4979 1.2224 1.09 1.8226.48084.4875 1.00197.7705 1.40191.9319.10435.0422.20103.0762.28737.1036v.2134c0 .8284.67157 1.5 1.5 1.5h.5c.55228 0 1-.4477 1-1h2c0 .5523.4477 1 1 1h.5c.8284 0 1.5-.6716 1.5-1.5v-1.0431c.0365-.026.076-.0552.118-.0876.2132-.1646.4931-.4143.772-.7619.562-.7006 1.11-1.78801 1.11-3.34028 0-.65-.0925-1.23218-.2691-1.75164-.1776.44148-.4334.85129-.7581 1.20696z"/><path d="m13.7914 3.87483c.5256 1.26861.1163 2.69129-.9106 3.50229-.4163.32874-.988.30352-1.4781.10057l-2.38903-.98933c-.49007-.20295-.91226-.58933-.97424-1.11613-.15292-1.29959.56349-2.59506 1.8321-3.12066 1.53067-.63418 3.28567.09258 3.91987 1.62326zm-1.5304 2.7175c.6851-.54101.9564-1.49033.6065-2.33474-.4228-1.02046-1.5928-1.50496-2.6132-1.08217-.84442.34985-1.32373 1.21302-1.22172 2.07996.00221.01885.011.05649.06593.11558.0597.06424.16022.13652.29777.19348l2.38902.98934c.1376.05696.2597.0769.3474.07368.0806-.00296.1134-.02336.1283-.03513z"/><path d="m5.75 7.5c.41421 0 .75-.33579.75-.75s-.33579-.75-.75-.75-.75.33579-.75.75.33579.75.75.75z"/></g></svg>